<svg width="64" height="64" viewBox="0 0 64 64" fill="none" xmlns="http://www.w3.org/2000/svg">
<path d="M24.688 64H37.5823L64 0.33285C59.3678 2.32722 36.8972 15.3776 28.8441 42.3935C26.9351 48.7979 25.4651 55.9872 24.688 64Z" fill="#CAA448"/>
<path d="M24.688 64H37.5823L64 0.33285C59.3678 2.32722 36.8972 15.3776 28.8441 42.3935C26.9351 48.7979 25.4651 55.9872 24.688 64Z" fill="#B8860B"/>
<path d="M24.688 64L0 0.33285C0 0.33285 7.94103 -1.25163 9.90663 2.4935C11.8722 6.23863 28.8441 42.3935 28.8441 42.3935L27.5971 46.948L26.2254 53.1967L25.2414 59.2466L24.688 64Z" fill="#CAA448"/>
</svg>
